HIERARCHY
ROOT Hips
{
    OFFSET 0.000000 0.000000 0.000000
    CHANNELS 6 Xposition Yposition Zposition Zrotation Yrotation Xrotation
    JOINT Chest
    {
        OFFSET 0.000000 1.634758 -0.000000
        CHANNELS 3 Zrotation Yrotation Xrotation
        JOINT Chest2
        {
            OFFSET 0.000000 2.197341 0.000000
            CHANNELS 3 Zrotation Yrotation Xrotation
            JOINT Neck
            {
                OFFSET 0.000000 0.961544 0.000000
                CHANNELS 3 Zrotation Yrotation Xrotation
                JOINT Head
                {
                    OFFSET 0.000000 0.632542 -0.032565
                    CHANNELS 3 Zrotation Yrotation Xrotation
                    End Site
                    {
                        OFFSET -0.000001 0.439502 2.922845
                    }
                }
            }
            JOINT LeftCollar
            {
                OFFSET 0.167536 0.778237 -0.168280
                CHANNELS 3 Zrotation Yrotation Xrotation
                JOINT LeftShoulder
                {
                    OFFSET 0.831514 -0.002900 0.006458
                    CHANNELS 3 Zrotation Yrotation Xrotation
                    JOINT LeftElbow
                    {
                        OFFSET 2.272872 -0.026639 0.059314
                        CHANNELS 3 Zrotation Yrotation Xrotation
                        JOINT LeftWrist
                        {
                            OFFSET 2.081982 -0.024402 0.054333
                            CHANNELS 3 Zrotation Yrotation Xrotation
                            JOINT LeftHandThumb1
                            {
                                OFFSET 0.218903 -0.128645 0.283837
                                CHANNELS 3 Zrotation Yrotation Xrotation
                                JOINT LeftHandThumb2
                                {
                                    OFFSET 0.137157 -0.025101 0.077902
                                    CHANNELS 3 Zrotation Yrotation Xrotation
                                    JOINT LeftHandThumb3
                                    {
                                        OFFSET 0.163622 -0.081880 0.007927
                                        CHANNELS 3 Zrotation Yrotation Xrotation
                                        End Site
                                        {
                                            OFFSET 0.255284 -0.077032 -0.027067
                                        }
                                    }
                                }
                            }
                            JOINT LeftHandFore1
                            {
                                OFFSET 0.767340 -0.016076 0.196678
                                CHANNELS 3 Zrotation Yrotation Xrotation
                                JOINT LeftHandFore2
                                {
                                    OFFSET 0.215173 -0.024035 0.010864
                                    CHANNELS 3 Zrotation Yrotation Xrotation
                                    JOINT LeftHandFore3
                                    {
                                        OFFSET 0.003480 -0.129153 0.008378
                                        CHANNELS 3 Zrotation Yrotation Xrotation
                                        End Site
                                        {
                                            OFFSET -0.105322 -0.162018 0.004925
                                        }
                                    }
                                }
                            }
                            JOINT LeftHandMiddle1
                            {
                                OFFSET 0.709887 -0.008320 0.018526
                                CHANNELS 3 Zrotation Yrotation Xrotation
                                JOINT LeftHandMiddle2
                                {
                                    OFFSET 0.228603 -0.087976 0.008038
                                    CHANNELS 3 Zrotation Yrotation Xrotation
                                    JOINT LeftHandMiddle3
                                    {
                                        OFFSET -0.008550 -0.145861 0.005904
                                        CHANNELS 3 Zrotation Yrotation Xrotation
                                        End Site
                                        {
                                            OFFSET -0.179304 -0.153141 0.005309
                                        }
                                    }
                                }
                            }
                            JOINT LeftHandRing1
                            {
                                OFFSET 0.743817 -0.005823 -0.153668
                                CHANNELS 3 Zrotation Yrotation Xrotation
                                JOINT LeftHandRing2
                                {
                                    OFFSET 0.272006 -0.225026 -0.010453
                                    CHANNELS 3 Zrotation Yrotation Xrotation
                                    JOINT LeftHandRing3
                                    {
                                        OFFSET -0.058151 -0.123377 0.001429
                                        CHANNELS 3 Zrotation Yrotation Xrotation
                                        End Site
                                        {
                                            OFFSET -0.110415 -0.047174 0.001692
                                        }
                                    }
                                }
                            }
                            JOINT LeftHandLittle1
                            {
                                OFFSET 0.689408 -0.053302 -0.308304
                                CHANNELS 3 Zrotation Yrotation Xrotation
                                JOINT LeftHandLittle2
                                {
                                    OFFSET 0.068111 -0.180039 -0.031637
                                    CHANNELS 3 Zrotation Yrotation Xrotation
                                    JOINT LeftHandLittle3
                                    {
                                        OFFSET -0.094732 -0.068193 -0.029526
                                        CHANNELS 3 Zrotation Yrotation Xrotation
                                        End Site
                                        {
                                            OFFSET -0.188262 0.006629 -0.028317
                                        }
                                    }
                                }
                            }
                        }
                    }
                }
            }
            JOINT RightCollar
            {
                OFFSET -0.167536 0.778237 -0.168280
                CHANNELS 3 Zrotation Yrotation Xrotation
                JOINT RightShoulder
                {
                    OFFSET -0.831514 -0.002900 0.006457
                    CHANNELS 3 Zrotation Yrotation Xrotation
                    JOINT RightElbow
                    {
                        OFFSET -2.272872 -0.026639 0.059313
                        CHANNELS 3 Zrotation Yrotation Xrotation
                        JOINT RightWrist
                        {
                            OFFSET -2.081982 -0.024402 0.054331
                            CHANNELS 3 Zrotation Yrotation Xrotation
                            JOINT RightHandThumb1
                            {
                                OFFSET -0.218911 -0.128571 0.283837
                                CHANNELS 3 Zrotation Yrotation Xrotation
                                JOINT RightHandThumb2
                                {
                                    OFFSET -0.137157 -0.025101 0.077902
                                    CHANNELS 3 Zrotation Yrotation Xrotation
                                    JOINT RightHandThumb3
                                    {
                                        OFFSET -0.160591 -0.087276 0.011525
                                        CHANNELS 3 Zrotation Yrotation Xrotation
                                        End Site
                                        {
                                            OFFSET -0.201429 -0.172937 0.036816
                                        }
                                    }
                                }
                            }
                            JOINT RightHandFore1
                            {
                                OFFSET -0.767344 -0.015991 0.196679
                                CHANNELS 3 Zrotation Yrotation Xrotation
                                JOINT RightHandFore2
                                {
                                    OFFSET -0.215182 -0.023988 0.010864
                                    CHANNELS 3 Zrotation Yrotation Xrotation
                                    JOINT RightHandFore3
                                    {
                                        OFFSET -0.004225 -0.129259 -0.006036
                                        CHANNELS 3 Zrotation Yrotation Xrotation
                                        End Site
                                        {
                                            OFFSET 0.104425 -0.162162 -0.012879
                                        }
                                    }
                                }
                            }
                            JOINT RightHandMiddle1
                            {
                                OFFSET -0.709887 -0.008302 0.018525
                                CHANNELS 3 Zrotation Yrotation Xrotation
                                JOINT RightHandMiddle2
                                {
                                    OFFSET -0.228590 -0.087997 0.008038
                                    CHANNELS 3 Zrotation Yrotation Xrotation
                                    JOINT RightHandMiddle3
                                    {
                                        OFFSET 0.008262 -0.145954 -0.003687
                                        CHANNELS 3 Zrotation Yrotation Xrotation
                                        End Site
                                        {
                                            OFFSET 0.178703 -0.153321 -0.013714
                                        }
                                    }
                                }
                            }
                            JOINT RightHandRing1
                            {
                                OFFSET -0.743819 -0.005785 -0.153669
                                CHANNELS 3 Zrotation Yrotation Xrotation
                                JOINT RightHandRing2
                                {
                                    OFFSET -0.272022 -0.225007 -0.010452
                                    CHANNELS 3 Zrotation Yrotation Xrotation
                                    JOINT RightHandRing3
                                    {
                                        OFFSET 0.058154 -0.122646 -0.013449
                                        CHANNELS 3 Zrotation Yrotation Xrotation
                                        End Site
                                        {
                                            OFFSET 0.110415 -0.046757 -0.006532
                                        }
                                    }
                                }
                            }
                            JOINT RightHandLittle1
                            {
                                OFFSET -0.689403 -0.053298 -0.308303
                                CHANNELS 3 Zrotation Yrotation Xrotation
                                JOINT RightHandLittle2
                                {
                                    OFFSET -0.068118 -0.180039 -0.031638
                                    CHANNELS 3 Zrotation Yrotation Xrotation
                                    JOINT RightHandLittle3
                                    {
                                        OFFSET 0.095947 -0.071582 -0.012875
                                        CHANNELS 3 Zrotation Yrotation Xrotation
                                        End Site
                                        {
                                            OFFSET 0.190484 0.000490 0.002031
                                        }
                                    }
                                }
                            }
                        }
                    }
                }
            }
        }
    }
    JOINT LeftHip
    {
        OFFSET 0.685143 0.673822 -0.044491
        CHANNELS 3 Zrotation Yrotation Xrotation
        JOINT LeftKnee
        {
            OFFSET 0.085364 -3.750208 0.017676
            CHANNELS 3 Zrotation Yrotation Xrotation
            JOINT LeftAnkle
            {
                OFFSET 0.094583 -4.155206 0.019585
                CHANNELS 3 Zrotation Yrotation Xrotation
                JOINT LeftToe
                {
                    OFFSET -0.000000 -0.395925 0.621478
                    CHANNELS 3 Zrotation Yrotation Xrotation
                    End Site
                    {
                        OFFSET -0.000000 -0.077878 0.321152
                    }
                }
            }
        }
    }
    JOINT RightHip
    {
        OFFSET -0.685143 0.673822 -0.044492
        CHANNELS 3 Zrotation Yrotation Xrotation
        JOINT RightKnee
        {
            OFFSET -0.085364 -3.750208 0.017677
            CHANNELS 3 Zrotation Yrotation Xrotation
            JOINT RightAnkle
            {
                OFFSET -0.094583 -4.155206 0.019585
                CHANNELS 3 Zrotation Yrotation Xrotation
                JOINT RightToe
                {
                    OFFSET -0.000000 -0.395925 0.621478
                    CHANNELS 3 Zrotation Yrotation Xrotation
                    End Site
                    {
                        OFFSET -0.000000 -0.077878 0.321152
                    }
                }
            }
        }
    }
}
MOTION
Frames: 5
Frame Time: 0.033333
-1.447042 7.778989 -3.824859 -178.562683 -5.241614 -177.631271 -6.055943 -0.168509 2.678107 -2.605865 0.276565 -1.958274 5.996219 -1.396894 -3.604124 0.101219 -1.965322 -4.477484 3.315369 -9.598622 -0.053903 -93.747269 -63.347942 33.318020 175.422668 -80.148422 -176.155792 -0.742495 12.868475 -65.418259 -0.000012 0.000005 -0.000011 5.754763 -9.986861 -1.046646 2.427864 -17.361757 -7.169518 -0.996103 -0.172993 0.315914 78.859604 2.539910 0.730250 34.472099 1.827536 -0.035833 13.854869 0.411103 -0.180345 71.609932 2.271560 0.540571 43.006134 1.394376 -0.062719 30.838913 1.579038 -1.871811 72.949471 -1.556701 -0.575524 36.671272 0.194525 0.915410 63.409546 6.366413 -6.131645 65.154350 -1.172050 -7.953557 43.930668 -3.380686 -6.632912 -2.387536 9.105236 -0.017895 40.377106 53.437298 -5.333909 -176.997025 73.349731 -177.770798 0.332203 -13.513055 -68.391594 0.000005 0.000015 -0.000005 -5.477772 5.590313 -8.738752 -15.992861 6.574003 -8.378778 0.996090 0.172983 0.316076 -78.527855 -2.879235 -5.612986 -34.398029 0.341018 -3.027227 -13.854863 -0.411236 -0.180334 -71.525520 -1.221970 -3.231168 -42.972260 -0.311457 -2.111691 -30.838905 -1.579095 -1.871680 -72.919189 3.602518 -3.479789 -36.528900 3.453532 -2.099178 -63.409462 -6.366725 -6.131735 -64.523804 14.921147 -12.718479 -43.349018 10.264846 -5.477958 1.972527 -2.076021 -27.394556 0.735666 1.173607 64.159042 -9.899875 -10.657553 -33.777084 0.000002 0.000000 0.000000 -0.982880 4.543914 -26.566006 -0.426483 -0.964613 47.704609 -3.468434 -3.976057 -32.010288 0.000001 -0.000001 0.000003
-1.476895 7.894295 -3.685278 179.811554 -6.561646 179.664932 -8.518722 -0.831580 -1.032265 -3.436698 0.341891 -4.227845 5.009086 -2.703258 -1.432335 0.206182 -3.998319 -0.393006 3.198575 -9.363616 -0.064392 -104.687012 -61.154331 44.617004 175.609589 -79.648636 -176.345657 -0.778736 12.925319 -65.441597 -0.000005 0.000005 -0.000004 5.149081 -10.279455 -1.586433 2.661008 -17.854908 -7.419218 -0.000002 -0.000005 -0.000001 80.158539 2.653876 0.761213 35.941658 2.008379 0.041970 14.315644 0.427603 -0.190441 72.406761 2.289787 0.567513 44.937836 1.449714 -0.029221 31.399136 1.433021 -1.928880 73.835602 -1.539028 -0.500056 38.376953 0.163069 0.988950 64.438354 6.191938 -6.329663 66.496635 -1.080695 -8.138650 45.692024 -3.398056 -6.971107 -2.393354 8.096308 -0.005417 64.145409 53.920918 5.966063 -177.546860 67.977150 -178.353241 0.333311 -13.475228 -68.504715 -0.000003 0.000011 0.000004 -6.256569 5.467676 -8.320473 -16.426905 6.816895 -8.711997 -0.000003 0.000002 0.000003 -79.828400 -2.895583 -5.648163 -35.865776 0.419957 -3.211039 -14.315627 -0.427736 -0.190448 -72.320107 -1.256048 -3.259388 -44.900486 -0.366712 -2.207585 -31.399124 -1.433076 -1.928772 -73.805763 3.642202 -3.637722 -38.235142 3.549519 -2.276492 -64.438263 -6.192219 -6.329735 -65.918182 15.059927 -13.112602 -45.125389 10.571337 -5.817996 -1.075941 -4.212399 -11.789943 0.505287 1.030757 52.225876 -6.278533 -7.445090 -33.506119 0.000000 0.000002 0.000000 -2.680720 4.352615 -22.685879 -0.363415 -0.903225 43.836662 -2.174074 -4.708419 -29.536575 -0.000001 -0.000002 0.000002
-1.519750 8.025564 -3.482018 178.185791 -7.950560 178.531082 -10.544608 -1.824747 -3.092662 -3.890517 0.463062 -5.269980 3.819898 -3.550692 -0.264659 0.265564 -5.144444 1.826455 3.457435 -10.172042 -0.082977 -102.374275 -66.586830 46.391224 170.119003 -85.824203 -170.818405 -0.811085 13.012369 -65.464027 -0.000001 0.000011 0.000000 4.543535 -10.900526 -1.089115 3.152552 -18.399694 -7.766992 1.309425 -0.077701 -0.335740 80.966492 2.739923 0.709339 36.925907 2.198820 0.043966 14.224067 0.429161 -0.195987 72.085152 2.280019 0.561032 46.023373 1.481689 0.001525 30.665592 1.503415 -1.890394 73.457207 -1.499880 -0.373611 39.207344 0.101056 1.063087 63.530460 6.210780 -6.050852 65.532623 -1.275126 -7.932829 46.429596 -3.482471 -7.161647 -2.711563 7.676011 0.009325 58.442734 53.699577 -0.932264 -177.665314 66.315872 -178.481873 0.334506 -13.437953 -68.622375 0.000000 0.000005 0.000003 -6.756721 4.760254 -8.740589 -16.849436 7.259496 -9.189458 -1.309409 0.077730 -0.335954 -80.645966 -2.891466 -5.597327 -36.858974 0.540122 -3.282912 -14.224043 -0.429301 -0.196005 -71.998962 -1.244681 -3.252488 -45.983364 -0.397771 -2.271738 -30.665573 -1.503474 -1.890281 -73.425552 3.672174 -3.728769 -39.069241 3.548542 -2.402748 -63.530369 -6.211000 -6.050914 -64.910667 14.833155 -12.901134 -45.891323 10.618261 -5.919789 -5.880774 -10.370915 4.596099 0.215520 0.718079 33.409836 -3.866819 1.852695 -31.650827 0.000001 -0.000000 0.000004 -4.698154 4.195268 -19.923944 -0.286668 -0.815812 38.723671 -0.826214 -5.517307 -26.195240 -0.000000 0.000000 0.000002
-1.562922 8.164515 -3.221578 176.691833 -9.270597 178.972412 -11.933742 -2.741843 -2.731848 -3.858583 0.685406 -3.971285 2.642838 -3.956295 -0.050003 0.294244 -5.696535 2.183795 4.419615 -12.528286 -0.115779 -62.941368 -77.604080 11.623668 2.536075 -77.976639 -3.140149 -0.839277 13.123150 -65.485466 -0.000012 0.000010 0.000009 3.854531 -11.962736 0.386614 3.963027 -19.252493 -8.336237 3.330431 -0.347409 -0.743818 81.859665 2.833339 0.568803 38.011253 2.463689 -0.035092 13.964181 0.431416 -0.206137 71.181183 2.252577 0.542941 47.228836 1.518040 0.038167 28.624197 1.700475 -1.782582 72.395187 -1.442108 -0.200686 40.129799 -0.000435 1.159516 61.008488 6.352008 -5.305027 62.833252 -1.797792 -7.359514 47.250443 -3.650623 -7.384979 -3.636477 7.669633 0.030740 36.140999 53.018383 -19.374880 -177.483734 68.768600 -178.285263 0.335754 -13.401908 -68.742989 -0.000003 -0.000003 0.000000 -7.119596 3.456546 -10.010644 -17.518179 7.970011 -9.960861 -3.330426 0.347432 -0.744235 -81.557884 -2.889471 -5.456600 -37.966640 0.725423 -3.280113 -13.964169 -0.431572 -0.206162 -71.096329 -1.212729 -3.232542 -47.185783 -0.432117 -2.344061 -28.624187 -1.700534 -1.782459 -72.360130 3.702853 -3.802835 -39.998108 3.514044 -2.558245 -61.008419 -6.352203 -5.305062 -62.106670 14.182717 -12.314812 -46.758053 10.592912 -6.027265 -8.185842 -12.028846 20.957527 0.002868 0.086423 3.799499 1.339337 6.177421 -21.487541 -0.000000 -0.000001 0.000002 -6.777692 2.960135 -18.075829 -0.197914 -0.690704 31.980066 0.119619 -5.455607 -21.790449 0.000000 -0.000000 -0.000001
-1.597926 8.306091 -2.937775 175.461517 -10.384019 -179.975159 -12.927640 -3.471607 -2.428973 -3.691982 0.856199 -2.841126 1.582916 -3.797274 0.295616 0.272626 -5.280358 2.779923 5.876843 -13.220665 -0.151925 2.266447 -71.368721 -46.266262 1.470814 -71.828773 -2.037950 -0.863038 13.251194 -65.505669 -0.000007 0.000012 -0.000007 3.066730 -13.377828 2.670499 5.043988 -20.344135 -9.100035 5.921899 -0.772798 -1.206639 82.811752 2.931583 0.356000 39.165665 2.787297 -0.180599 13.557968 0.434179 -0.219825 69.786179 2.210263 0.515549 48.518265 1.557552 0.079890 25.514420 2.004027 -1.616389 70.758469 -1.367693 0.009111 41.116631 -0.133690 1.273392 57.167854 6.594180 -4.171582 58.680096 -2.541366 -6.487909 48.130844 -3.885617 -7.633164 -4.482713 7.532251 0.051969 18.372921 48.333046 -32.761265 -177.266678 71.094505 -178.054092 0.337017 -13.367776 -68.864914 0.000003 0.000015 -0.000010 -7.335318 1.677328 -11.979442 -18.396442 8.885334 -10.979302 -5.921888 0.772803 -1.207189 -82.536095 -2.889230 -5.242064 -39.154606 0.962269 -3.214658 -13.557951 -0.434305 -0.219816 -69.703392 -1.163458 -3.200464 -48.471855 -0.469031 -2.422284 -25.514406 -2.004061 -1.616233 -70.718536 3.731914 -3.861363 -40.993416 3.451442 -2.736589 -57.167789 -6.594309 -4.171595 -57.841225 13.137290 -11.431434 -47.696945 10.506379 -6.138288 -9.611330 -14.406560 20.043816 0.000000 0.000000 -0.000002 4.942065 9.080590 -20.302464 -0.000001 -0.000005 0.000001 -8.448587 0.185148 -15.501350 -0.099335 -0.499257 22.508223 0.560627 -3.999826 -15.862901 -0.000001 -0.000002 -0.000003
